PathFileType	4	(X/Y/Z)	Kane _Static
DataRate	CameraRate	NumFrames	NumMarkers	Units	OrigDataRate	OrigDataStartFrame	OrigNumFrames
250	250	4	66	mm	250	196	200
Frame#	Time	LASI			RASI			LPSI			RPSI			C7			T10			CLAV			STRN			RTH1			RTH2			RTH3			RTB1			RTB2			RTB3			RCAL			RMT1			RMT2			LTH1			LTH2			LTH3			LTB1			LTB2			LTB3			LCAL			LMT1			LMT2			RLFC			RMFC			LLFC			LMFC			RMMAL			RLMAL			LMMAL			LLMAL			G_LCAL			G_LMT1			G_LMT2			G_RCAL			G_RMT1			G_RMT2			LAJC			LKJC			OPelvis			RAJC			RKJC			Reg_LHJC			Reg_RHJC			SACR			fun_LAJC			fun_LHJC			fun_LKJC			fun_LLAJC			fun_LLKJC			fun_LMAJC			fun_LMKJC			fun_RAJC			fun_RHJC			fun_RKJC			fun_RLAJC			fun_RLKJC			fun_RMAJC			fun_RMKJC			RHJC			LHJC			G_RAJC			G_LAJC		
		X1	Y1	Z1	X2	Y2	Z2	X3	Y3	Z3	X4	Y4	Z4	X5	Y5	Z5	X6	Y6	Z6	X7	Y7	Z7	X8	Y8	Z8	X9	Y9	Z9	X10	Y10	Z10	X11	Y11	Z11	X12	Y12	Z12	X13	Y13	Z13	X14	Y14	Z14	X15	Y15	Z15	X16	Y16	Z16	X17	Y17	Z17	X18	Y18	Z18	X19	Y19	Z19	X20	Y20	Z20	X21	Y21	Z21	X22	Y22	Z22	X23	Y23	Z23	X24	Y24	Z24	X25	Y25	Z25	X26	Y26	Z26	X27	Y27	Z27	X28	Y28	Z28	X29	Y29	Z29	X30	Y30	Z30	X31	Y31	Z31	X32	Y32	Z32	X33	Y33	Z33	X34	Y34	Z34	X35	Y35	Z35	X36	Y36	Z36	X37	Y37	Z37	X38	Y38	Z38	X39	Y39	Z39	X40	Y40	Z40	X41	Y41	Z41	X42	Y42	Z42	X43	Y43	Z43	X44	Y44	Z44	X45	Y45	Z45	X46	Y46	Z46	X47	Y47	Z47	X48	Y48	Z48	X49	Y49	Z49	X50	Y50	Z50	X51	Y51	Z51	X52	Y52	Z52	X53	Y53	Z53	X54	Y54	Z54	X55	Y55	Z55	X56	Y56	Z56	X57	Y57	Z57	X58	Y58	Z58	X59	Y59	Z59	X60	Y60	Z60	X61	Y61	Z61	X62	Y62	Z62	X63	Y63	Z63	X64	Y64	Z64	X65	Y65	Z65	X66	Y66	Z66	
185	0.74	547.415272	1040.829762	-667.666628	550.696370	1040.433680	-462.123472	376.364866	1109.371336	-616.948485	377.373835	1104.135932	-505.248946	379.359362	1538.216966	-569.815200	364.257763	1300.040430	-563.456575	516.117735	1495.512056	-568.946787	589.099921	1325.994969	-565.587289	474.255095	899.247689	-390.174284	567.627248	794.918282	-460.333088	478.210980	695.469970	-388.458700	467.507423	412.116347	-481.991385	411.990799	331.418664	-377.975461	434.284096	221.197831	-461.913717	312.043316	 56.644230	-438.041291	553.532043	 59.995216	-431.326815	527.678411	 56.408192	-352.508186	433.505562	862.523280	-746.857333	538.461330	751.230303	-714.025908	418.498240	664.118535	-737.908183	458.711568	416.052844	-669.971500	385.462647	337.521478	-764.258032	422.730910	221.420845	-682.695689	301.907964	 59.769994	-703.018867	547.733184	 54.656354	-701.459719	515.758359	 52.636676	-794.836661	469.669084	503.055675	-414.371993	480.952379	489.787059	-517.143377	435.809254	511.205828	-728.573833	453.326768	508.716262	-627.225645	413.940553	106.927919	-472.094274	392.959942	108.353617	-384.917456	424.142453	118.053511	-676.655502	377.336668	109.016387	-758.783087	301.907964	  0.000000	-703.018867	547.733184	  0.000000	-701.459719	515.758359	  0.000000	-794.836661	312.043316	  0.000000	-438.041291	553.532043	  0.000000	-431.326815	527.678411	  0.000000	-352.508186	400.739560	113.534949	-717.719294	444.568011	509.961045	-677.899739	549.055820	1040.631721	-564.895052	403.450251	107.640768	-428.505863	475.310732	496.421367	-465.757685	478.239722	997.018741	-633.553654	481.123406	996.499481	-493.701754	376.869353	1106.753639	-561.098715	384.370223	118.608085	-708.948512	468.128398	952.595857	-662.523027	444.568009	509.961045	-677.899743	371.846846	114.813161	-756.293036	435.809254	511.205828	-728.573833	396.893599	122.403011	-661.603986	453.326768	508.716262	-627.225645	396.600955	104.145731	-430.096911	472.393426	949.865416	-474.398803	475.310731	496.421369	-465.757683	385.393098	100.882101	-386.615919	469.669084	503.055675	-414.371993	407.808807	107.409361	-473.577904	480.952379	489.787059	-517.143377	472.393426	949.865416	-474.398803	468.128398	952.595857	-662.523027	403.450251	  0.000000	-428.505863	400.739560	  0.000000	-717.719294	
186	0.744	547.199835	1040.834219	-667.628785	550.404149	1040.435292	-462.079514	376.148114	1109.414861	-616.968404	377.113350	1104.167605	-505.274549	379.368442	1538.258244	-569.832522	364.154849	1300.096310	-563.485900	516.112846	1495.487728	-568.925582	589.006120	1325.926282	-565.540107	473.953840	899.237784	-390.174545	567.388093	794.948873	-460.319304	478.013507	695.464962	-388.448106	467.446487	412.106880	-481.989165	411.930778	331.401094	-377.973786	434.237437	221.183628	-461.909061	312.035687	 56.628090	-438.032340	553.518291	 60.008385	-431.327709	527.670271	 56.419160	-352.506950	433.327366	862.526962	-746.871798	538.286989	751.248225	-714.009656	418.353016	664.118885	-737.930814	458.613247	416.067041	-669.978414	385.391816	337.513615	-764.261762	422.688452	221.425084	-682.699316	301.903299	 59.758913	-703.024923	547.725249	 54.663454	-701.459990	515.752687	 52.641732	-794.835266	469.573048	503.041973	-414.352750	480.873850	489.773824	-517.122272	435.686818	511.208134	-728.593882	453.172201	508.720104	-627.240169	413.912981	106.916095	-472.087538	392.941532	108.340712	-384.902794	424.129488	118.056639	-676.660464	377.311072	109.007700	-758.788502	301.903299	  0.000000	-703.024923	547.725249	  0.000000	-701.459990	515.752687	  0.000000	-794.835266	312.035687	  0.000000	-438.032340	553.518291	  0.000000	-431.327709	527.670271	  0.000000	-352.506950	400.720280	113.532169	-717.724483	444.429509	509.964119	-677.917026	548.801990	1040.634755	-564.854151	403.427259	107.628403	-428.495164	475.223449	496.407899	-465.737511	478.003488	997.036784	-633.539591	480.834865	996.515494	-493.686792	376.630735	1106.791239	-561.121476	384.357169	118.600313	-708.954965	467.895389	952.615679	-662.512882	444.429508	509.964119	-677.917029	371.834672	114.800319	-756.305633	435.686818	511.208134	-728.593882	396.879665	122.400309	-661.604294	453.172201	508.720104	-627.240169	396.561734	104.128628	-430.089223	472.086618	949.883580	-474.387221	475.223449	496.407901	-465.737509	385.351428	100.864721	-386.605916	469.573048	503.041973	-414.352750	407.772036	107.392536	-473.572531	480.873850	489.773824	-517.122272	472.086618	949.883580	-474.387221	467.895389	952.615679	-662.512882	403.427259	  0.000000	-428.495164	400.720280	  0.000000	-717.724483	
187	0.748	546.988803	1040.838976	-667.591233	550.112692	1040.436335	-462.035238	375.934558	1109.457858	-616.991228	376.854227	1104.198694	-505.303616	379.375301	1538.299276	-569.847796	364.050370	1300.151329	-563.516276	516.106665	1495.463646	-568.900611	588.911897	1325.858481	-565.490028	473.652015	899.228048	-390.175490	567.149241	794.979056	-460.305772	477.815478	695.459888	-388.438145	467.385060	412.097518	-481.987281	411.869503	331.383449	-377.972594	434.190826	221.169579	-461.904760	312.028149	 56.611961	-438.023516	553.504672	 60.021491	-431.328590	527.662115	 56.430020	-352.505630	433.153796	862.530650	-746.887601	538.116572	751.266065	-713.993698	418.211594	664.119266	-737.954618	458.516751	416.080973	-669.985819	385.322845	337.505870	-764.265591	422.647516	221.429266	-682.702882	301.898782	 59.748128	-703.030887	547.717446	 54.670569	-701.460082	515.747041	 52.646752	-794.833732	469.476789	503.028211	-414.334273	480.795855	489.760526	-517.101847	435.567532	511.210538	-728.614741	453.019908	508.724120	-627.255350	413.885748	106.904433	-472.081061	392.923326	108.327693	-384.888391	424.116572	118.059789	-676.665340	377.286092	108.999209	-758.793328	301.898782	  0.000000	-703.030887	547.717446	  0.000000	-701.460082	515.747041	  0.000000	-794.833732	312.028149	  0.000000	-438.023516	553.504672	  0.000000	-431.328590	527.662115	  0.000000	-352.505630	400.701332	113.529499	-717.729334	444.293720	509.967329	-677.935046	548.550746	1040.637655	-564.813238	403.404540	107.616063	-428.484724	475.136322	496.394369	-465.718060	477.771301	997.054762	-633.527071	480.547583	996.530967	-493.673331	376.394396	1106.828283	-561.147422	384.345342	118.592496	-708.961619	467.667163	952.635494	-662.504625	444.293719	509.967329	-677.935049	371.823819	114.787356	-756.318015	435.567532	511.210538	-728.614741	396.866864	122.397637	-661.605219	453.019908	508.724120	-627.255350	396.522619	104.111448	-430.081855	471.780768	949.901132	-474.377470	475.136321	496.394371	-465.718058	385.309481	100.847289	-386.596325	469.476789	503.028211	-414.334273	407.735753	107.375607	-473.567385	480.795855	489.760526	-517.101847	471.780768	949.901132	-474.377470	467.667163	952.635494	-662.504625	403.404540	  0.000000	-428.484724	400.701332	  0.000000	-717.729334	
188	0.752	546.782231	1040.844061	-667.554147	549.822261	1040.436867	-461.990882	375.724225	1109.500233	-617.016825	376.596676	1104.229123	-505.335999	379.379922	1538.340062	-569.861072	363.944363	1300.205462	-563.547593	516.099148	1495.439819	-568.871994	588.817199	1325.791575	-565.437264	473.350146	899.218545	-390.177146	566.911037	795.008823	-460.292577	477.617169	695.454789	-388.428877	467.323184	412.088300	-481.985740	411.807064	331.365782	-377.971900	434.144348	221.155726	-461.900827	312.020711	 56.595885	-438.014847	553.491229	 60.034505	-431.329452	527.653963	 56.440749	-352.504234	432.984772	862.534325	-746.904662	537.950128	751.283845	-713.978180	418.073935	664.119667	-737.979477	458.422159	416.094610	-669.993721	385.255777	337.498242	-764.269508	422.608108	221.433384	-682.706380	301.894412	 59.737648	-703.036754	547.709780	 54.677691	-701.459995	515.741441	 52.651730	-794.832079	469.380322	503.014469	-414.316644	480.718336	489.747246	-517.082193	435.451407	511.213035	-728.636321	452.870130	508.728309	-627.271140	413.858958	106.892993	-472.074879	392.905372	108.314599	-384.874301	424.103725	118.062955	-676.670128	377.261802	108.990910	-758.797608	301.894412	  0.000000	-703.036754	547.709780	  0.000000	-701.459995	515.741441	  0.000000	-794.832079	312.020711	  0.000000	-438.014847	553.491229	  0.000000	-431.329452	527.653963	  0.000000	-352.504234	400.682763	113.526932	-717.733868	444.160769	509.970672	-677.953730	548.302244	1040.640463	-564.772517	403.382168	107.603796	-428.474588	475.049329	496.380857	-465.699418	477.543222	997.072679	-633.516174	480.261890	996.545876	-493.661457	376.160454	1106.864686	-561.176412	384.334705	118.584632	-708.968464	467.443769	952.655300	-662.498321	444.160768	509.970673	-677.953734	371.814245	114.774275	-756.330167	435.451407	511.213035	-728.636321	396.855164	122.394991	-661.606758	452.870130	508.728309	-627.271140	396.483731	104.094227	-430.074843	471.476264	949.918041	-474.369628	475.049329	496.380860	-465.699416	385.267388	100.829838	-386.587184	469.380322	503.014469	-414.316644	407.700069	107.358616	-473.562504	480.718336	489.747246	-517.082193	471.476264	949.918041	-474.369628	467.443769	952.655300	-662.498321	403.382168	  0.000000	-428.474588	400.682763	  0.000000	-717.733868	
